<svg xmlns="http://www.w3.org/2000/svg" width="48" height="24" viewBox="0 0 48 24">
  <g id="Group_10" data-name="Group 10" transform="translate(-2513 102)">
    <rect id="Rectangle_1" data-name="Rectangle 1" width="48" height="24" transform="translate(2513 -102)" fill="rgba(255,255,255,0)"/>
    <g id="Group_3" data-name="Group 3" transform="translate(2513.369 -100.246)">
      <g id="Group_1" data-name="Group 1" transform="translate(0 15.677)">
        <path id="Path_1" data-name="Path 1" d="M289.3,1284.122h-.432v-.456h.432v-.84h.554v.84h.87v.456h-.87v1.966c0,.328.122.444.462.444h.408V1287h-.5c-.59,0-.925-.243-.925-.912Z" transform="translate(-288.867 -1282.37)" fill="#0ee5c1"/>
        <path id="Path_2" data-name="Path 2" d="M319.786,1292.759a1.384,1.384,0,0,1,1.241.663v-.608h.56v3.334h-.56v-.62a1.393,1.393,0,0,1-1.247.675,1.6,1.6,0,0,1-1.576-1.734A1.58,1.58,0,0,1,319.786,1292.759Zm.109.481a1.126,1.126,0,0,0-1.126,1.229,1.133,1.133,0,1,0,1.126-1.229Z" transform="translate(-315.886 -1291.518)" fill="#0ee5c1"/>
        <path id="Path_3" data-name="Path 3" d="M369.379,1284.122h-.432v-.456h.432v-.84h.554v.84h.87v.456h-.87v1.966c0,.328.122.444.462.444h.408V1287h-.5c-.59,0-.925-.243-.925-.912Z" transform="translate(-362.619 -1282.37)" fill="#0ee5c1"/>
        <path id="Path_4" data-name="Path 4" d="M441.072,1296.2c-.779,0-1.326-.426-1.363-1.034h.572c.03.323.316.566.785.566.438,0,.681-.219.681-.493,0-.742-1.971-.31-1.971-1.552,0-.511.481-.931,1.223-.931a1.119,1.119,0,0,1,1.26,1.047H441.7a.641.641,0,0,0-.724-.578c-.408,0-.651.195-.651.462,0,.791,1.935.359,1.959,1.552C442.289,1295.789,441.808,1296.2,441.072,1296.2Z" transform="translate(-427.789 -1291.518)" fill="#0ee5c1"/>
        <path id="Path_5" data-name="Path 5" d="M481.177,1292.759a1.384,1.384,0,0,1,1.241.663v-.608h.56v3.334h-.56v-.62a1.393,1.393,0,0,1-1.247.675,1.6,1.6,0,0,1-1.576-1.734A1.58,1.58,0,0,1,481.177,1292.759Zm.11.481a1.126,1.126,0,0,0-1.126,1.229,1.133,1.133,0,1,0,1.126-1.229Z" transform="translate(-464.523 -1291.518)" fill="#0ee5c1"/>
        <path id="Path_6" data-name="Path 6" d="M577.822,1294.191c0-.682-.371-1.028-.931-1.028s-.955.353-.955,1.071v1.843h-.554v-3.334h.554v.475a1.232,1.232,0,0,1,1.071-.535,1.293,1.293,0,0,1,1.363,1.43v1.965h-.547Z" transform="translate(-552.74 -1291.447)" fill="#0ee5c1"/>
        <path id="Path_7" data-name="Path 7" d="M623.626,1292.759a1.384,1.384,0,0,1,1.241.663v-.608h.56v3.334h-.56v-.62a1.392,1.392,0,0,1-1.247.675,1.6,1.6,0,0,1-1.576-1.734A1.58,1.58,0,0,1,623.626,1292.759Zm.11.481a1.126,1.126,0,0,0-1.126,1.229,1.133,1.133,0,1,0,1.126-1.229Z" transform="translate(-595.714 -1291.518)" fill="#0ee5c1"/>
        <path id="Path_8" data-name="Path 8" d="M717.831,1278.668h.554v2.647l1.284-1.479h.773l-1.57,1.661,1.576,1.673h-.754l-1.308-1.472v1.472h-.554Z" transform="translate(-683.932 -1278.54)" fill="#0ee5c1"/>
        <path id="Path_9" data-name="Path 9" d="M756.45,1292.759a1.384,1.384,0,0,1,1.241.663v-.608h.56v3.334h-.56v-.62a1.393,1.393,0,0,1-1.247.675,1.6,1.6,0,0,1-1.576-1.734A1.58,1.58,0,0,1,756.45,1292.759Zm.109.481a1.126,1.126,0,0,0-1.126,1.229,1.133,1.133,0,1,0,1.126-1.229Z" transform="translate(-718.042 -1291.518)" fill="#0ee5c1"/>
        <path id="Path_10" data-name="Path 10" d="M847.16,1284.122h-.432v-.456h.432v-.84h.554v.84h.87v.456h-.87v1.966c0,.328.122.444.462.444h.408V1287h-.5c-.59,0-.925-.243-.925-.912Z" transform="translate(-802.643 -1282.37)" fill="#0ee5c1"/>
        <path id="Path_11" data-name="Path 11" d="M877.528,1277.429a.371.371,0,1,1,.377.377A.371.371,0,0,1,877.528,1277.429Zm.091.919h.554v3.335h-.554Z" transform="translate(-831.009 -1277.052)" fill="#0ee5c1"/>
      </g>
      <g id="Group_2" data-name="Group 2" transform="translate(0.633)">
        <path id="Path_12" data-name="Path 12" d="M296.88,1120.726h2.39v.8a3.342,3.342,0,0,1,1.166-.751,3.742,3.742,0,0,1,1.367-.265,2.9,2.9,0,0,1,2.2.773,2.863,2.863,0,0,1,.737,2.061v5.037h-2.519v-4.751a1.037,1.037,0,0,0-1.188-1.159,1.983,1.983,0,0,0-.937.222,1.756,1.756,0,0,0-.694.68v5.009H296.88Z" transform="translate(-296.88 -1117.205)" fill="#fff"/>
        <path id="Path_13" data-name="Path 13" d="M339.8,1079.953v-1.274h2.247v.758a.34.34,0,0,0,.079.258.391.391,0,0,0,.265.072h3.12v1.574h-4.25Q339.8,1081.341,339.8,1079.953Z" transform="translate(-336.406 -1078.679)" fill="#fff"/>
        <path id="Path_14" data-name="Path 14" d="M412.6,1119.647a2.907,2.907,0,0,1,1.1-2.469,4.78,4.78,0,0,1,2.962-.837,5.231,5.231,0,0,1,1.574.229l.472-.587h2.719l-1.4,1.646a2.732,2.732,0,0,1,.7,2.018v4.565h-2.519v-4.522q0-1.388-1.546-1.388t-1.546,1.388v.916a1.336,1.336,0,0,1,.487-.322,1.7,1.7,0,0,1,.644-.122h1.059v1.818h-1.159a1.052,1.052,0,0,0-.744.265.954.954,0,0,0-.286.737v1.231H412.6Z" transform="translate(-403.453 -1113.036)" fill="#fff"/>
        <path id="Path_15" data-name="Path 15" d="M535.651,1130.7a2.559,2.559,0,0,1-1.016-1.073,3.363,3.363,0,0,1-.343-1.539v-4.866h2.519v4.708a1.16,1.16,0,0,0,.329.9,1.352,1.352,0,0,0,.945.3,1.732,1.732,0,0,0,.9-.222,1.888,1.888,0,0,0,.644-.68v-5.009h2.519v7.656h-2.39v-.787a3.343,3.343,0,0,1-1.131.737,3.616,3.616,0,0,1-1.359.265A3.15,3.15,0,0,1,535.651,1130.7Z" transform="translate(-515.53 -1119.707)" fill="#fff"/>
        <path id="Path_16" data-name="Path 16" d="M650.009,1123.817a2.906,2.906,0,0,1,1.1-2.469,5.672,5.672,0,0,1,5.932,0,2.915,2.915,0,0,1,1.095,2.469v4.565h-2.519v-4.522q0-1.388-1.546-1.388t-1.546,1.388v.916a1.336,1.336,0,0,1,.487-.322,1.7,1.7,0,0,1,.644-.122h1.059v1.818h-1.159a1.052,1.052,0,0,0-.744.265.954.954,0,0,0-.286.737v1.231h-2.519Z" transform="translate(-622.103 -1117.205)" fill="#fff"/>
        <path id="Path_17" data-name="Path 17" d="M766.539,1127.631a3.887,3.887,0,0,1-.995-2.912,5.785,5.785,0,0,1,.4-2.254,3.282,3.282,0,0,1,1.109-1.453,2.676,2.676,0,0,1,1.581-.5,2.118,2.118,0,0,1,.93.193,1.767,1.767,0,0,1,.644.508,2.078,2.078,0,0,1,1.789-.7,2.461,2.461,0,0,1,1.832.68,2.4,2.4,0,0,1,.673,1.767v5.424h-2.519v-5.138a1.056,1.056,0,0,0-.129-.58.478.478,0,0,0-.429-.193q-.544,0-.687.7h-1.016q-.1-.7-.6-.7-.444,0-.716.573a4.036,4.036,0,0,0-.272,1.674,2.089,2.089,0,0,0,.429,1.453,1.791,1.791,0,0,0,1.374.465,2.79,2.79,0,0,0,.959-.172v1.932a4.857,4.857,0,0,1-1.445.2A4.018,4.018,0,0,1,766.539,1127.631Z" transform="translate(-728.508 -1117.205)" fill="#fff"/>
        <path id="Path_18" data-name="Path 18" d="M792.164,1092.441H799v1.574h-6.841Z" transform="translate(-753.024 -1091.353)" fill="#fff"/>
      </g>
    </g>
  </g>
</svg>
