<svg xmlns="http://www.w3.org/2000/svg" xmlns:xlink="http://www.w3.org/1999/xlink" width="767.293" height="195.999" viewBox="0 0 767.293 195.999">
  <defs>
    <filter id="Union_2" x="0" y="0" width="767.293" height="195.999" filterUnits="userSpaceOnUse">
      <feOffset dy="3" input="SourceAlpha"/>
      <feGaussianBlur stdDeviation="3" result="blur"/>
      <feFlood flood-opacity="0.161"/>
      <feComposite operator="in" in2="blur"/>
      <feComposite in="SourceGraphic"/>
    </filter>
  </defs>
  <g transform="matrix(1, 0, 0, 1, 0, 0)" filter="url(#Union_2)">
    <path id="Union_2-2" data-name="Union 2" d="M504.953,174.838a15.141,15.141,0,0,1-5.585-6.068,18.859,18.859,0,0,1-2.04-8.887,18.475,18.475,0,0,1,2.04-8.859,14.775,14.775,0,0,1,5.616-5.915,15.4,15.4,0,0,1,7.955-2.1,14.616,14.616,0,0,1,7.51,1.863,12.4,12.4,0,0,1,4.744,4.685v-6.009h5.526v32.912h-5.526v-6.124a12.9,12.9,0,0,1-4.834,4.775A14.48,14.48,0,0,1,512.88,177,14.9,14.9,0,0,1,504.953,174.838Zm3.482-25.645a10.459,10.459,0,0,0-4.025,4.2,13.393,13.393,0,0,0-1.5,6.488,13.684,13.684,0,0,0,1.5,6.575,10.607,10.607,0,0,0,4.025,4.264,10.863,10.863,0,0,0,5.588,1.471,11.013,11.013,0,0,0,5.612-1.471,10.535,10.535,0,0,0,4.056-4.264,13.551,13.551,0,0,0,1.5-6.516,13.383,13.383,0,0,0-1.5-6.485,10.619,10.619,0,0,0-4.056-4.236,11.5,11.5,0,0,0-11.2-.028Zm-75.012,25.645a15.157,15.157,0,0,1-5.585-6.068,18.858,18.858,0,0,1-2.04-8.887,18.474,18.474,0,0,1,2.04-8.859,14.793,14.793,0,0,1,5.616-5.915,15.409,15.409,0,0,1,7.959-2.1,14.614,14.614,0,0,1,7.507,1.863,12.407,12.407,0,0,1,4.743,4.685v-6.009h5.526v32.912h-5.526v-6.124a12.882,12.882,0,0,1-4.834,4.775A14.475,14.475,0,0,1,441.35,177,14.909,14.909,0,0,1,433.423,174.838Zm3.486-25.645a10.441,10.441,0,0,0-4.025,4.2,13.394,13.394,0,0,0-1.5,6.488,13.685,13.685,0,0,0,1.5,6.575,10.588,10.588,0,0,0,4.025,4.264,10.842,10.842,0,0,0,5.585,1.471,11.028,11.028,0,0,0,5.616-1.471,10.554,10.554,0,0,0,4.052-4.264,13.551,13.551,0,0,0,1.5-6.516,13.383,13.383,0,0,0-1.5-6.485,10.639,10.639,0,0,0-4.052-4.236,11.5,11.5,0,0,0-11.2-.028Zm-82.522,25.645a15.166,15.166,0,0,1-5.585-6.068,18.859,18.859,0,0,1-2.04-8.887,18.475,18.475,0,0,1,2.04-8.859,14.8,14.8,0,0,1,5.616-5.915,15.412,15.412,0,0,1,7.959-2.1,14.612,14.612,0,0,1,7.507,1.863,12.4,12.4,0,0,1,4.744,4.685v-6.009h5.526v32.912h-5.526v-6.124a12.9,12.9,0,0,1-4.834,4.775,14.48,14.48,0,0,1-7.479,1.89A14.9,14.9,0,0,1,354.387,174.838Zm3.486-25.645a10.436,10.436,0,0,0-4.025,4.2,13.394,13.394,0,0,0-1.5,6.488,13.685,13.685,0,0,0,1.5,6.575,10.583,10.583,0,0,0,4.025,4.264,10.839,10.839,0,0,0,5.585,1.471,11.026,11.026,0,0,0,5.616-1.471,10.55,10.55,0,0,0,4.053-4.264,13.551,13.551,0,0,0,1.5-6.516,13.383,13.383,0,0,0-1.5-6.485,10.635,10.635,0,0,0-4.053-4.236,11.5,11.5,0,0,0-11.2-.028Zm-35.554,26.514a11.416,11.416,0,0,1-4.747-3.6,9.611,9.611,0,0,1-1.922-5.317H321.3a5.539,5.539,0,0,0,2.311,4.025,8.79,8.79,0,0,0,5.435,1.561,7.913,7.913,0,0,0,4.925-1.38,4.22,4.22,0,0,0,1.8-3.483,3.439,3.439,0,0,0-1.925-3.215,27.09,27.09,0,0,0-5.943-2.071,43.669,43.669,0,0,1-5.978-1.953,10.566,10.566,0,0,1-3.962-2.944,7.666,7.666,0,0,1-1.651-5.133,7.768,7.768,0,0,1,1.5-4.626,10.139,10.139,0,0,1,4.261-3.333,15.367,15.367,0,0,1,6.308-1.23,13.461,13.461,0,0,1,8.827,2.763,9.952,9.952,0,0,1,3.6,7.565h-5.463a5.66,5.66,0,0,0-2.074-4.143,7.717,7.717,0,0,0-5.074-1.563,7.831,7.831,0,0,0-4.685,1.261,3.9,3.9,0,0,0-1.741,3.306,3.618,3.618,0,0,0,1.053,2.672,7.605,7.605,0,0,0,2.641,1.682,45.8,45.8,0,0,0,4.414,1.411,47.4,47.4,0,0,1,5.765,1.891,10.106,10.106,0,0,1,3.812,2.794,7.464,7.464,0,0,1,1.654,4.865,8.346,8.346,0,0,1-1.5,4.863,10.041,10.041,0,0,1-4.236,3.395A15.13,15.13,0,0,1,329.1,177,17,17,0,0,1,322.319,175.707Zm-61.739-.869a15.174,15.174,0,0,1-5.589-6.068,18.9,18.9,0,0,1-2.039-8.887,18.516,18.516,0,0,1,2.039-8.859,14.823,14.823,0,0,1,5.616-5.915,15.414,15.414,0,0,1,7.959-2.1,14.6,14.6,0,0,1,7.507,1.863,12.353,12.353,0,0,1,4.744,4.685v-6.009h5.526v32.912h-5.526v-6.124a12.888,12.888,0,0,1-4.834,4.775,14.457,14.457,0,0,1-7.475,1.89A14.9,14.9,0,0,1,260.58,174.838Zm3.482-25.645a10.459,10.459,0,0,0-4.025,4.2,13.394,13.394,0,0,0-1.5,6.488,13.685,13.685,0,0,0,1.5,6.575,10.606,10.606,0,0,0,4.025,4.264,10.85,10.85,0,0,0,5.585,1.471,11.022,11.022,0,0,0,5.617-1.471,10.554,10.554,0,0,0,4.052-4.264,13.551,13.551,0,0,0,1.5-6.516,13.383,13.383,0,0,0-1.5-6.485,10.639,10.639,0,0,0-4.052-4.236,11.5,11.5,0,0,0-11.2-.028Zm297.765,27.265V143.546h5.467v32.912Zm-11.531,0q-4.567,0-6.846-2.1t-2.284-6.909v-19.4H536.9v-4.5h4.264v-8.288h5.467v8.288h8.587v4.5h-8.587v19.4a4.618,4.618,0,0,0,1.022,3.4,5.026,5.026,0,0,0,3.541.99h4.024v4.622Zm-63.482,0L473.9,161.924v14.534h-5.467V132.015H473.9v26.128l12.671-14.6H494.2l-15.5,16.4,15.556,16.515Zm-73.33,0V157.84q0-4.921-2.463-7.535a8.782,8.782,0,0,0-6.725-2.614,9.012,9.012,0,0,0-6.878,2.7q-2.554,2.705-2.551,7.868v18.2H389.4V143.546h5.467v4.685a10.843,10.843,0,0,1,4.414-3.9,13.693,13.693,0,0,1,6.154-1.383,13.345,13.345,0,0,1,9.731,3.636q3.723,3.633,3.722,10.481v19.4Zm-107.562,0q-4.567,0-6.846-2.1t-2.283-6.909v-19.4h-4.264v-4.5h4.264v-8.288h5.467v8.288h8.588v4.5H302.26v19.4a4.618,4.618,0,0,0,1.018,3.4,5.042,5.042,0,0,0,3.545.99h4.025v4.622Zm-62.463,0q-4.562,0-6.846-2.1t-2.28-6.909v-19.4h-4.265v-4.5h4.265v-8.288H239.8v8.288h8.59v4.5H239.8v19.4a4.618,4.618,0,0,0,1.021,3.4,5.042,5.042,0,0,0,3.545.99h4.024v4.622Zm-38.737,0,2.583-12.011H194.693l-2.582,12.011h-5.224l2.582-12.011h-9.428v-4.8h10.447l2.283-10.812h-9.307v-4.8h10.328l2.582-12.014H201.6l-2.582,12.014h12.612l2.586-12.014h5.224l-2.582,12.014H225.2v4.8h-9.369l-2.28,10.812h8.285v4.8h-9.307l-2.586,12.011Zm-9.008-16.814h12.613l2.283-10.812H198ZM562.008,137.12a3.722,3.722,0,0,1,2.645-6.363,3.418,3.418,0,0,1,2.551,1.081,3.848,3.848,0,0,1,0,5.282,3.414,3.414,0,0,1-2.551,1.081A3.589,3.589,0,0,1,562.008,137.12Zm21.056-90.4c0-16.473,10.888-27.069,25.051-27.069,9.825,0,16.571,5.008,19.653,10.5V20.518h8.862V73.312h-8.862V63.484c-3.18,5.686-10.02,10.694-19.75,10.694C593.952,74.178,583.064,63.1,583.064,46.723Zm8.963,0c0,12.428,8.188,19.75,17.822,19.75s17.919-7.225,17.919-19.653c0-12.236-8.285-19.556-17.919-19.556S592.027,34.295,592.027,46.723Zm-175.151,0c0-16.473,10.885-27.069,25.047-27.069,9.828,0,16.57,5.008,19.653,10.5V20.518h8.861V73.312h-8.861V63.484c-3.181,5.686-10.02,10.694-19.751,10.694C427.761,74.178,416.876,63.1,416.876,46.723Zm8.96,0c0,12.428,8.188,19.75,17.822,19.75s17.919-7.225,17.919-19.653c0-12.236-8.285-19.556-17.919-19.556S425.836,34.295,425.836,46.723Zm-187.2,0c0-16.473,10.889-27.069,25.051-27.069,9.825,0,16.567,5.008,19.653,10.5V20.518H292.2V73.312h-8.862V63.484c-3.18,5.686-10.02,10.694-19.75,10.694C249.528,74.178,238.639,63.1,238.639,46.723Zm8.959,0c0,12.428,8.192,19.75,17.825,19.75s17.919-7.225,17.919-19.653c0-12.236-8.289-19.556-17.919-19.556S247.6,34.295,247.6,46.723ZM188.736,57.8h9.057c.48,5.1,5.008,8.959,12.428,8.959,6.934,0,10.787-3.469,10.787-7.8,0-11.754-31.212-4.915-31.212-24.568,0-8.094,7.608-14.738,19.361-14.738,11.66,0,19.365,6.262,19.945,16.57h-8.768c-.386-5.3-4.432-9.154-11.465-9.154-6.454,0-10.308,3.082-10.308,7.322,0,12.525,30.635,5.683,31.02,24.568,0,8.667-7.61,15.218-19.267,15.218C197.985,74.178,189.313,67.436,188.736,57.8ZM36.707,46.723c0-16.473,10.886-27.069,25.047-27.069,9.829,0,16.571,5.008,19.653,10.5V20.518h8.862V73.312H81.407V63.484C78.231,69.17,71.387,74.178,61.66,74.178,47.592,74.178,36.707,63.1,36.707,46.723Zm8.959,0c0,12.428,8.188,19.75,17.822,19.75S81.407,59.248,81.407,46.82c0-12.236-8.285-19.556-17.919-19.556S45.666,34.295,45.666,46.723Zm673.82,26.59c-9.345,0-14.641-3.855-14.641-14.451V27.743H698V20.518h6.844V7.225h8.764V20.518h13.776v7.225H713.609V58.862c0,5.2,1.926,7.031,7.323,7.031h6.453v7.421Zm-322.364,0V43.449c0-10.791-5.877-16.283-14.739-16.283-8.959,0-15.124,5.589-15.124,16.957v29.19H358.49V20.518h8.769v7.514c3.469-5.491,9.825-8.476,16.953-8.476,12.236,0,21.581,7.513,21.581,22.639V73.313Zm-275.443,0c-9.345,0-14.641-3.855-14.641-14.451V27.743H100.2V20.518h6.84V7.225H115.8V20.518h13.776v7.225H115.8V58.862c0,5.2,1.929,7.031,7.323,7.031h6.453v7.421Zm-100.194,0c-9.346,0-14.646-3.855-14.646-14.451V27.743H0V20.518H6.839V7.225h8.769V20.518H29.384v7.225H15.608V58.862c0,5.2,1.925,7.031,7.319,7.031h6.457v7.421Zm716.5,0V20.518h8.769V73.312Zm-171.78,0L545.493,50V73.312h-8.769V2.022h8.769V43.928l20.327-23.41h12.233L553.2,46.82,578.15,73.312ZM736.54,5.971a5.877,5.877,0,1,1,11.753,0,5.877,5.877,0,1,1-11.753,0Z" transform="translate(9.5 6.5)" fill="#fff" stroke="rgba(0,0,0,0)" stroke-miterlimit="10" stroke-width="1"/>
  </g>
</svg>
